<svg width="177" height="111" viewBox="0 0 177 111" fill="none" xmlns="http://www.w3.org/2000/svg">
<path d="M0 54.8746V110.246H42.5841V98.0292H13.4485V88.4779H42.5841V76.2606H13.4485V67.0977H42.5841V54.8746H0Z" fill="white"/>
<path d="M72.7927 54.8746H51.001V110.246H72.7927C89.8161 110.246 102.174 98.6058 102.174 82.5634V82.4093C102.174 66.4525 89.8161 54.8746 72.7927 54.8746ZM88.1086 82.7118C88.1086 91.7778 81.9526 97.8693 72.7927 97.8693H64.5294V67.2461H72.7927C81.9526 67.2461 88.1086 73.4004 88.1086 82.5577V82.7118Z" fill="white"/>
<path d="M122.664 54.8812H109.136V110.253H122.664V54.8812Z" fill="white"/>
<path d="M146.295 110.246H159.823V67.4802H176.15V54.8746H129.963V67.4802H146.295V110.246Z" fill="white"/>
<path d="M54.9762 46.4886H42.39V15.2431C42.39 14.7407 42.0759 14.1983 41.5105 13.7131C39.8088 12.2744 36.4681 12.2687 34.7663 13.7131C34.2009 14.1926 33.8869 14.7407 33.8869 15.2431V46.4886H21.0893V15.2431C21.0893 14.7407 20.7753 14.1983 20.2099 13.7131C18.5081 12.2687 15.1674 12.2687 13.4599 13.7131C12.8946 14.1926 12.5805 14.735 12.5805 15.2431V46.4886H0V15.2431C0 6.83941 7.55516 0 16.8406 0C20.741 0 24.4929 1.21602 27.4852 3.44254C30.4833 1.21602 34.2352 0 38.1356 0C47.421 0 54.9762 6.83941 54.9762 15.2431V46.4886ZM44.4458 44.4276H52.9147V15.2431C52.9147 7.9698 46.2846 2.05525 38.1356 2.05525C34.475 2.05525 30.963 3.25985 28.2505 5.45212L27.4852 6.0744L26.72 5.45212C24.0132 3.26556 20.5069 2.06096 16.8406 2.06096C8.69157 2.06096 2.06154 7.97551 2.06154 15.2431V44.4276H10.5304V15.2431C10.5304 14.1241 11.1015 13.028 12.1294 12.1488C14.6021 10.0593 19.0849 10.0593 21.5462 12.1488C22.5798 13.028 23.1509 14.1241 23.1509 15.2431V44.4276H31.8253V15.2431C31.8253 14.1241 32.3964 13.028 33.4243 12.1488C35.8913 10.0593 40.3741 10.0593 42.8411 12.1488C43.8747 13.028 44.4458 14.1298 44.4458 15.2488V44.4333V44.4276Z" fill="white"/>
<path d="M85.5794 46.9283C79.075 46.9283 72.8789 45.2042 68.1277 42.07C65.575 40.3915 63.5363 38.3705 62.0573 36.0698C60.3669 33.4265 59.5046 30.5777 59.5046 27.5976V26.0847H72.0909V27.5976C72.0909 28.2027 72.3821 29.8013 75.0547 31.5654C77.7729 33.358 81.5134 34.3457 85.5794 34.3457C89.8795 34.3457 93.6599 33.4608 96.2297 31.8565C98.1884 30.6348 99.0621 29.3217 99.0621 27.5976V25.0514C95.0304 26.8269 90.3991 27.7631 85.5794 27.7631C79.075 27.7631 72.8789 26.039 68.1277 22.9048C65.575 21.2206 63.5306 19.1996 62.0573 16.9046C60.3669 14.2613 59.5046 11.4125 59.5046 8.42669V0.662415H72.0909V8.42098C72.0909 9.02613 72.3821 10.6247 75.0547 12.3887C77.7729 14.1814 81.5134 15.169 85.5794 15.169C89.6453 15.169 93.3801 14.1814 96.104 12.3887C98.7766 10.6247 99.0678 9.02613 99.0678 8.42098V0.759468H111.66V27.5976C111.66 33.7062 108.553 39.0099 102.905 42.5324C98.3597 45.3698 92.2094 46.9283 85.5851 46.9283M61.5776 28.1399C61.6747 30.5263 62.4171 32.8156 63.7933 34.9565C65.1125 37.0118 66.957 38.8272 69.2641 40.3458C73.6841 43.2631 79.4804 44.8674 85.5851 44.8674C91.6897 44.8674 97.5945 43.4173 101.815 40.7797C106.834 37.6455 109.604 32.9641 109.604 27.5919V2.81472H101.135V8.42098C101.135 9.58562 100.633 11.8749 97.2462 14.1072C94.1967 16.1167 90.0565 17.2243 85.5908 17.2243C81.1251 17.2243 76.9849 16.1167 73.9297 14.1072C70.5433 11.8749 70.0407 9.58562 70.0407 8.42098V2.72337H61.5719V8.42669C61.5719 11.0072 62.32 13.4849 63.799 15.7913C65.1182 17.8466 66.9627 19.662 69.2698 21.1864C73.6898 24.098 79.4861 25.7022 85.5908 25.7022C90.5876 25.7022 95.3559 24.6403 99.3762 22.6364L101.135 21.7573V27.6033C101.135 30.0525 99.8902 32.0164 97.3318 33.6092C94.4422 35.4132 90.2735 36.4066 85.5908 36.4066C80.9081 36.4066 76.9849 35.2991 73.9297 33.2838C71.0116 31.3598 70.2349 29.3959 70.075 28.1399H61.5833H61.5776Z" fill="white"/>
</svg>
