<svg width="24" height="24" viewBox="0 0 24 24" fill="none" xmlns="http://www.w3.org/2000/svg">
<path d="M12.0123 24C10.358 24 8.80657 23.6872 7.35801 23.0617C5.90945 22.4444 4.63373 21.5844 3.53085 20.4815C2.42797 19.3786 1.56377 18.1029 0.938255 16.6543C0.320971 15.1975 0.0123291 13.6461 0.0123291 12C0.0123291 10.3457 0.320971 8.79424 0.938255 7.34568C1.56377 5.89712 2.42797 4.6214 3.53085 3.51852C4.63373 2.41564 5.90945 1.55556 7.35801 0.938272C8.80657 0.312757 10.358 0 12.0123 0C13.6666 0 15.214 0.312757 16.6543 0.938272C18.1029 1.55556 19.3786 2.41564 20.4815 3.51852C21.5843 4.6214 22.4444 5.89712 23.0617 7.34568C23.6872 8.79424 24 10.3457 24 12C24 13.6461 23.6872 15.1975 23.0617 16.6543C22.4444 18.1029 21.5843 19.3786 20.4815 20.4815C19.3786 21.5844 18.1029 22.4444 16.6543 23.0617C15.214 23.6872 13.6666 24 12.0123 24ZM12 22.1235C12.8806 22.1235 13.7572 22.0041 14.6296 21.7654C15.502 21.5267 16.3251 21.1852 17.0987 20.7407C17.8806 20.2963 18.5679 19.7572 19.1605 19.1235C18.7243 18.4486 18.144 17.8765 17.4197 17.4074C16.6955 16.93 15.8724 16.5679 14.9506 16.321C14.0288 16.0741 13.0453 15.9506 12 15.9506C10.9465 15.9506 9.95472 16.0782 9.02467 16.3333C8.10286 16.5802 7.27982 16.9424 6.55554 17.4198C5.83949 17.8889 5.26336 18.4568 4.82714 19.1235C5.42797 19.7572 6.11521 20.2963 6.88887 20.7407C7.67076 21.1852 8.49793 21.5267 9.37035 21.7654C10.2428 22.0041 11.1193 22.1235 12 22.1235ZM12 13.963C12.7572 13.9712 13.4403 13.7819 14.0494 13.3951C14.6584 13 15.1399 12.4691 15.4938 11.8025C15.856 11.1276 16.037 10.3663 16.037 9.51852C16.037 8.72839 15.856 8.00412 15.4938 7.34568C15.1317 6.68724 14.6461 6.16049 14.037 5.76543C13.428 5.37037 12.749 5.17284 12 5.17284C11.251 5.17284 10.5679 5.37037 9.9506 5.76543C9.34155 6.16049 8.85595 6.68724 8.49381 7.34568C8.1399 8.00412 7.96295 8.72839 7.96295 9.51852C7.96295 10.3663 8.1399 11.1235 8.49381 11.7901C8.85595 12.4486 9.34155 12.9753 9.9506 13.3704C10.5597 13.7572 11.2428 13.9547 12 13.963Z" fill="#9F1B30"/>
</svg>
