<svg width="16" height="7" viewBox="0 0 16 7" fill="none" xmlns="http://www.w3.org/2000/svg">
<path d="M16 1.73608V5.26375C16 5.83543 15.8536 6.27 15.5608 6.56746C15.268 6.86027 14.8311 7.00667 14.2501 7.00667H1.76383C1.18286 7.00667 0.743646 6.86027 0.446187 6.56746C0.148729 6.27 0 5.83543 0 5.26375V1.73608C0 1.16441 0.146405 0.732162 0.439216 0.439351C0.736674 0.141893 1.17589 -0.00683594 1.75686 -0.00683594H14.2501C14.8264 -0.00683594 15.261 0.141893 15.5538 0.439351C15.8513 0.732162 16 1.16441 16 1.73608ZM1.9451 1.01103H1.44314V4.05765C1.44314 4.13202 1.46638 4.19244 1.51285 4.23892C1.56398 4.28539 1.6244 4.30863 1.69412 4.30863C1.77313 4.30863 1.83355 4.28539 1.87538 4.23892C1.92186 4.18779 1.9451 4.12505 1.9451 4.05068V1.01103ZM3.21394 1.01103H2.70501V2.90035C2.70501 2.97472 2.72825 3.03514 2.77473 3.08162C2.82585 3.1281 2.88627 3.15133 2.95599 3.15133C3.035 3.15133 3.09775 3.1281 3.14423 3.08162C3.1907 3.03514 3.21394 2.97239 3.21394 2.89338V1.01103ZM4.47582 1.01103H3.96688V2.90035C3.96688 2.97472 3.99245 3.03514 4.04357 3.08162C4.0947 3.1281 4.1528 3.15133 4.21786 3.15133C4.29688 3.15133 4.35962 3.1281 4.4061 3.08162C4.45258 3.03514 4.47582 2.97239 4.47582 2.89338V1.01103ZM5.73072 1.01103H5.22179V2.90035C5.22179 2.97472 5.24735 3.03514 5.29848 3.08162C5.3496 3.1281 5.41002 3.15133 5.47974 3.15133C5.5541 3.15133 5.61452 3.1281 5.661 3.08162C5.70748 3.03514 5.73072 2.97239 5.73072 2.89338V1.01103ZM6.99259 1.01103H6.49063V2.90035C6.49063 2.97472 6.51387 3.03514 6.56035 3.08162C6.61147 3.1281 6.6719 3.15133 6.74161 3.15133C6.81598 3.15133 6.8764 3.1281 6.92288 3.08162C6.96935 3.03514 6.99259 2.97239 6.99259 2.89338V1.01103ZM8.26144 1.01103H7.75251V4.05765C7.75251 4.13202 7.77574 4.19244 7.82222 4.23892C7.87335 4.28539 7.93377 4.30863 8.00349 4.30863C8.0825 4.30863 8.14524 4.28539 8.19172 4.23892C8.2382 4.18779 8.26144 4.12505 8.26144 4.05068V1.01103ZM9.52331 1.01103H9.00741V2.90035C9.00741 2.97472 9.03297 3.03514 9.0841 3.08162C9.13522 3.1281 9.19564 3.15133 9.26536 3.15133C9.34437 3.15133 9.40712 3.1281 9.4536 3.08162C9.50007 3.03514 9.52331 2.97239 9.52331 2.89338V1.01103ZM10.7852 1.01103H10.2763V2.90035C10.2763 2.97472 10.2995 3.03514 10.346 3.08162C10.3971 3.1281 10.4575 3.15133 10.5272 3.15133C10.6062 3.15133 10.669 3.1281 10.7155 3.08162C10.7619 3.03514 10.7852 2.97239 10.7852 2.89338V1.01103ZM12.0471 1.01103H11.5312V2.90035C11.5312 2.97472 11.5544 3.03514 11.6009 3.08162C11.652 3.1281 11.7147 3.15133 11.7891 3.15133C11.8635 3.15133 11.9239 3.1281 11.9704 3.08162C12.0215 3.03514 12.0471 2.97239 12.0471 2.89338V1.01103ZM13.3089 1.01103H12.793V2.90035C12.793 2.97472 12.8186 3.03514 12.8697 3.08162C12.9208 3.1281 12.9813 3.15133 13.051 3.15133C13.13 3.15133 13.1927 3.1281 13.2392 3.08162C13.2857 3.03514 13.3089 2.97239 13.3089 2.89338V1.01103ZM14.5638 1.01103H14.0549V4.05765C14.0549 4.13202 14.0781 4.19244 14.1246 4.23892C14.1757 4.28539 14.2362 4.30863 14.3059 4.30863C14.3849 4.30863 14.4476 4.28539 14.4941 4.23892C14.5406 4.18779 14.5638 4.12505 14.5638 4.05068V1.01103Z" fill="#9F1B30"/>
</svg>
