<svg width="289" height="29" viewBox="0 0 289 29" fill="none" xmlns="http://www.w3.org/2000/svg">
<path d="M5.112 5.07823C5.416 5.12623 5.692 5.25023 5.94 5.45023C6.196 5.65023 6.396 5.89823 6.54 6.19423C6.692 6.49023 6.768 6.80623 6.768 7.14223C6.768 7.56623 6.66 7.95023 6.444 8.29423C6.228 8.63023 5.912 8.89823 5.496 9.09823C5.088 9.29023 4.604 9.38623 4.044 9.38623H0.924V1.02223H3.924C4.492 1.02223 4.976 1.11823 5.376 1.31023C5.776 1.49423 6.076 1.74623 6.276 2.06623C6.476 2.38623 6.576 2.74623 6.576 3.14623C6.576 3.64223 6.44 4.05423 6.168 4.38223C5.904 4.70223 5.552 4.93423 5.112 5.07823ZM2.016 4.63423H3.852C4.364 4.63423 4.76 4.51423 5.04 4.27423C5.32 4.03423 5.46 3.70223 5.46 3.27823C5.46 2.85423 5.32 2.52223 5.04 2.28223C4.76 2.04223 4.356 1.92223 3.828 1.92223H2.016V4.63423ZM3.948 8.48623C4.492 8.48623 4.916 8.35823 5.22 8.10223C5.524 7.84623 5.676 7.49023 5.676 7.03423C5.676 6.57023 5.516 6.20623 5.196 5.94223C4.876 5.67023 4.448 5.53423 3.912 5.53423H2.016V8.48623H3.948ZM13.9474 2.81023L9.98738 12.4822H8.85938L10.1554 9.31423L7.50338 2.81023H8.71538L10.7794 8.13823L12.8194 2.81023H13.9474ZM20.5723 9.49423C20.0683 9.49423 19.6163 9.41023 19.2163 9.24223C18.8163 9.06623 18.5003 8.82623 18.2683 8.52223C18.0363 8.21023 17.9083 7.85423 17.8843 7.45423H19.0123C19.0443 7.78223 19.1963 8.05023 19.4683 8.25823C19.7483 8.46623 20.1123 8.57023 20.5603 8.57023C20.9763 8.57023 21.3043 8.47823 21.5443 8.29423C21.7843 8.11023 21.9043 7.87823 21.9043 7.59823C21.9043 7.31023 21.7763 7.09823 21.5203 6.96223C21.2643 6.81823 20.8683 6.67823 20.3323 6.54223C19.8443 6.41423 19.4443 6.28623 19.1323 6.15823C18.8283 6.02223 18.5643 5.82623 18.3403 5.57023C18.1243 5.30623 18.0163 4.96223 18.0163 4.53823C18.0163 4.20223 18.1163 3.89423 18.3163 3.61423C18.5163 3.33423 18.8003 3.11423 19.1683 2.95423C19.5363 2.78623 19.9563 2.70223 20.4283 2.70223C21.1563 2.70223 21.7443 2.88623 22.1923 3.25423C22.6403 3.62223 22.8803 4.12623 22.9123 4.76623H21.8203C21.7963 4.42223 21.6563 4.14623 21.4003 3.93823C21.1523 3.73023 20.8163 3.62623 20.3923 3.62623C20.0003 3.62623 19.6883 3.71023 19.4563 3.87823C19.2243 4.04623 19.1083 4.26623 19.1083 4.53823C19.1083 4.75423 19.1763 4.93423 19.3123 5.07823C19.4563 5.21423 19.6323 5.32623 19.8403 5.41423C20.0563 5.49423 20.3523 5.58623 20.7283 5.69023C21.2003 5.81823 21.5843 5.94623 21.8803 6.07423C22.1763 6.19423 22.4283 6.37823 22.6363 6.62623C22.8523 6.87423 22.9643 7.19823 22.9723 7.59823C22.9723 7.95823 22.8723 8.28223 22.6723 8.57023C22.4723 8.85823 22.1883 9.08623 21.8203 9.25423C21.4603 9.41423 21.0443 9.49423 20.5723 9.49423ZM25.0778 1.74223C24.8698 1.74223 24.6938 1.67023 24.5498 1.52623C24.4058 1.38223 24.3338 1.20623 24.3338 0.99823C24.3338 0.79023 24.4058 0.61423 24.5498 0.47023C24.6938 0.32623 24.8698 0.25423 25.0778 0.25423C25.2778 0.25423 25.4458 0.32623 25.5818 0.47023C25.7258 0.61423 25.7978 0.79023 25.7978 0.99823C25.7978 1.20623 25.7258 1.38223 25.5818 1.52623C25.4458 1.67023 25.2778 1.74223 25.0778 1.74223ZM25.6058 2.81023V9.38623H24.5138V2.81023H25.6058ZM30.179 2.70223C30.747 2.70223 31.243 2.82623 31.667 3.07423C32.099 3.32223 32.419 3.63423 32.627 4.01023V2.81023H33.731V9.53023C33.731 10.1302 33.603 10.6622 33.347 11.1262C33.091 11.5982 32.723 11.9662 32.243 12.2302C31.771 12.4942 31.219 12.6262 30.587 12.6262C29.723 12.6262 29.003 12.4222 28.427 12.0142C27.851 11.6062 27.511 11.0502 27.407 10.3462H28.487C28.607 10.7462 28.855 11.0662 29.231 11.3062C29.607 11.5542 30.059 11.6782 30.587 11.6782C31.187 11.6782 31.675 11.4902 32.051 11.1142C32.435 10.7382 32.627 10.2102 32.627 9.53023V8.15023C32.411 8.53423 32.091 8.85423 31.667 9.11023C31.243 9.36623 30.747 9.49423 30.179 9.49423C29.595 9.49423 29.063 9.35023 28.583 9.06223C28.111 8.77423 27.739 8.37023 27.467 7.85023C27.195 7.33023 27.059 6.73823 27.059 6.07423C27.059 5.40223 27.195 4.81423 27.467 4.31023C27.739 3.79823 28.111 3.40223 28.583 3.12223C29.063 2.84223 29.595 2.70223 30.179 2.70223ZM32.627 6.08623C32.627 5.59023 32.527 5.15823 32.327 4.79023C32.127 4.42223 31.855 4.14223 31.511 3.95023C31.175 3.75023 30.803 3.65023 30.395 3.65023C29.987 3.65023 29.615 3.74623 29.279 3.93823C28.943 4.13023 28.675 4.41023 28.475 4.77823C28.275 5.14623 28.175 5.57823 28.175 6.07423C28.175 6.57823 28.275 7.01823 28.475 7.39423C28.675 7.76223 28.943 8.04623 29.279 8.24623C29.615 8.43823 29.987 8.53423 30.395 8.53423C30.803 8.53423 31.175 8.43823 31.511 8.24623C31.855 8.04623 32.127 7.76223 32.327 7.39423C32.527 7.01823 32.627 6.58223 32.627 6.08623ZM38.7803 2.69023C39.5803 2.69023 40.2283 2.93423 40.7243 3.42223C41.2203 3.90223 41.4683 4.59823 41.4683 5.51023V9.38623H40.3883V5.66623C40.3883 5.01023 40.2243 4.51023 39.8963 4.16623C39.5683 3.81423 39.1203 3.63823 38.5523 3.63823C37.9763 3.63823 37.5163 3.81823 37.1723 4.17823C36.8363 4.53823 36.6683 5.06223 36.6683 5.75023V9.38623H35.5763V2.81023H36.6683V3.74623C36.8843 3.41023 37.1763 3.15023 37.5443 2.96623C37.9203 2.78223 38.3323 2.69023 38.7803 2.69023ZM43.8161 1.74223C43.6081 1.74223 43.4321 1.67023 43.2881 1.52623C43.1441 1.38223 43.0721 1.20623 43.0721 0.99823C43.0721 0.79023 43.1441 0.61423 43.2881 0.47023C43.4321 0.32623 43.6081 0.25423 43.8161 0.25423C44.0161 0.25423 44.1841 0.32623 44.3201 0.47023C44.4641 0.61423 44.5361 0.79023 44.5361 0.99823C44.5361 1.20623 44.4641 1.38223 44.3201 1.52623C44.1841 1.67023 44.0161 1.74223 43.8161 1.74223ZM44.3441 2.81023V9.38623H43.2521V2.81023H44.3441ZM49.4093 2.69023C50.2093 2.69023 50.8573 2.93423 51.3533 3.42223C51.8493 3.90223 52.0973 4.59823 52.0973 5.51023V9.38623H51.0173V5.66623C51.0173 5.01023 50.8533 4.51023 50.5253 4.16623C50.1973 3.81423 49.7493 3.63823 49.1813 3.63823C48.6053 3.63823 48.1453 3.81823 47.8013 4.17823C47.4653 4.53823 47.2973 5.06223 47.2973 5.75023V9.38623H46.2053V2.81023H47.2973V3.74623C47.5133 3.41023 47.8053 3.15023 48.1733 2.96623C48.5493 2.78223 48.9613 2.69023 49.4093 2.69023ZM56.593 2.70223C57.161 2.70223 57.657 2.82623 58.081 3.07423C58.513 3.32223 58.833 3.63423 59.041 4.01023V2.81023H60.145V9.53023C60.145 10.1302 60.017 10.6622 59.761 11.1262C59.505 11.5982 59.137 11.9662 58.657 12.2302C58.185 12.4942 57.633 12.6262 57.001 12.6262C56.137 12.6262 55.417 12.4222 54.841 12.0142C54.265 11.6062 53.925 11.0502 53.821 10.3462H54.901C55.021 10.7462 55.269 11.0662 55.645 11.3062C56.021 11.5542 56.473 11.6782 57.001 11.6782C57.601 11.6782 58.089 11.4902 58.465 11.1142C58.849 10.7382 59.041 10.2102 59.041 9.53023V8.15023C58.825 8.53423 58.505 8.85423 58.081 9.11023C57.657 9.36623 57.161 9.49423 56.593 9.49423C56.009 9.49423 55.477 9.35023 54.997 9.06223C54.525 8.77423 54.153 8.37023 53.881 7.85023C53.609 7.33023 53.473 6.73823 53.473 6.07423C53.473 5.40223 53.609 4.81423 53.881 4.31023C54.153 3.79823 54.525 3.40223 54.997 3.12223C55.477 2.84223 56.009 2.70223 56.593 2.70223ZM59.041 6.08623C59.041 5.59023 58.941 5.15823 58.741 4.79023C58.541 4.42223 58.269 4.14223 57.925 3.95023C57.589 3.75023 57.217 3.65023 56.809 3.65023C56.401 3.65023 56.029 3.74623 55.693 3.93823C55.357 4.13023 55.089 4.41023 54.889 4.77823C54.689 5.14623 54.589 5.57823 54.589 6.07423C54.589 6.57823 54.689 7.01823 54.889 7.39423C55.089 7.76223 55.357 8.04623 55.693 8.24623C56.029 8.43823 56.401 8.53423 56.809 8.53423C57.217 8.53423 57.589 8.43823 57.925 8.24623C58.269 8.04623 58.541 7.76223 58.741 7.39423C58.941 7.01823 59.041 6.58223 59.041 6.08623ZM71.0216 2.81023V9.38623H69.9296V8.41423C69.7216 8.75023 69.4296 9.01423 69.0536 9.20623C68.6856 9.39023 68.2776 9.48223 67.8296 9.48223C67.3176 9.48223 66.8576 9.37823 66.4496 9.17023C66.0416 8.95423 65.7176 8.63423 65.4776 8.21023C65.2456 7.78623 65.1296 7.27023 65.1296 6.66223V2.81023H66.2096V6.51823C66.2096 7.16623 66.3736 7.66623 66.7016 8.01823C67.0296 8.36223 67.4776 8.53423 68.0456 8.53423C68.6296 8.53423 69.0896 8.35423 69.4256 7.99423C69.7616 7.63423 69.9296 7.11023 69.9296 6.42223V2.81023H71.0216ZM73.9574 4.02223C74.1734 3.64623 74.4934 3.33423 74.9174 3.08623C75.3494 2.83023 75.8494 2.70223 76.4174 2.70223C77.0014 2.70223 77.5294 2.84223 78.0014 3.12223C78.4814 3.40223 78.8574 3.79823 79.1294 4.31023C79.4014 4.81423 79.5374 5.40223 79.5374 6.07423C79.5374 6.73823 79.4014 7.33023 79.1294 7.85023C78.8574 8.37023 78.4814 8.77423 78.0014 9.06223C77.5294 9.35023 77.0014 9.49423 76.4174 9.49423C75.8574 9.49423 75.3614 9.37023 74.9294 9.12223C74.5054 8.86623 74.1814 8.55023 73.9574 8.17423V12.5062H72.8654V2.81023H73.9574V4.02223ZM78.4214 6.07423C78.4214 5.57823 78.3214 5.14623 78.1214 4.77823C77.9214 4.41023 77.6494 4.13023 77.3054 3.93823C76.9694 3.74623 76.5974 3.65023 76.1894 3.65023C75.7894 3.65023 75.4174 3.75023 75.0734 3.95023C74.7374 4.14223 74.4654 4.42623 74.2574 4.80223C74.0574 5.17023 73.9574 5.59823 73.9574 6.08623C73.9574 6.58223 74.0574 7.01823 74.2574 7.39423C74.4654 7.76223 74.7374 8.04623 75.0734 8.24623C75.4174 8.43823 75.7894 8.53423 76.1894 8.53423C76.5974 8.53423 76.9694 8.43823 77.3054 8.24623C77.6494 8.04623 77.9214 7.76223 78.1214 7.39423C78.3214 7.01823 78.4214 6.57823 78.4214 6.07423ZM89.838 2.81023L85.878 12.4822H84.75L86.046 9.31423L83.394 2.81023H84.606L86.67 8.13823L88.71 2.81023H89.838ZM93.8037 9.49423C93.1877 9.49423 92.6277 9.35423 92.1237 9.07423C91.6277 8.79423 91.2357 8.39823 90.9477 7.88623C90.6677 7.36623 90.5277 6.76623 90.5277 6.08623C90.5277 5.41423 90.6717 4.82223 90.9597 4.31023C91.2557 3.79023 91.6557 3.39423 92.1597 3.12223C92.6637 2.84223 93.2277 2.70223 93.8517 2.70223C94.4757 2.70223 95.0397 2.84223 95.5437 3.12223C96.0477 3.39423 96.4437 3.78623 96.7317 4.29823C97.0277 4.81023 97.1757 5.40623 97.1757 6.08623C97.1757 6.76623 97.0237 7.36623 96.7197 7.88623C96.4237 8.39823 96.0197 8.79423 95.5077 9.07423C94.9957 9.35423 94.4277 9.49423 93.8037 9.49423ZM93.8037 8.53423C94.1957 8.53423 94.5637 8.44223 94.9077 8.25823C95.2517 8.07423 95.5277 7.79823 95.7357 7.43023C95.9517 7.06223 96.0597 6.61423 96.0597 6.08623C96.0597 5.55823 95.9557 5.11023 95.7477 4.74223C95.5397 4.37423 95.2677 4.10223 94.9317 3.92623C94.5957 3.74223 94.2317 3.65023 93.8397 3.65023C93.4397 3.65023 93.0717 3.74223 92.7357 3.92623C92.4077 4.10223 92.1437 4.37423 91.9437 4.74223C91.7437 5.11023 91.6437 5.55823 91.6437 6.08623C91.6437 6.62223 91.7397 7.07423 91.9317 7.44223C92.1317 7.81023 92.3957 8.08623 92.7237 8.27023C93.0517 8.44623 93.4117 8.53423 93.8037 8.53423ZM104.444 2.81023V9.38623H103.352V8.41423C103.144 8.75023 102.852 9.01423 102.476 9.20623C102.108 9.39023 101.7 9.48223 101.252 9.48223C100.74 9.48223 100.28 9.37823 99.8715 9.17023C99.4635 8.95423 99.1395 8.63423 98.8995 8.21023C98.6675 7.78623 98.5515 7.27023 98.5515 6.66223V2.81023H99.6315V6.51823C99.6315 7.16623 99.7955 7.66623 100.124 8.01823C100.452 8.36223 100.9 8.53423 101.468 8.53423C102.052 8.53423 102.512 8.35423 102.848 7.99423C103.184 7.63423 103.352 7.11023 103.352 6.42223V2.81023H104.444ZM109.079 6.07423C109.079 5.40223 109.215 4.81423 109.487 4.31023C109.759 3.79823 110.131 3.40223 110.603 3.12223C111.083 2.84223 111.615 2.70223 112.199 2.70223C112.775 2.70223 113.275 2.82623 113.699 3.07423C114.123 3.32223 114.439 3.63423 114.647 4.01023V2.81023H115.751V9.38623H114.647V8.16223C114.431 8.54623 114.107 8.86623 113.675 9.12223C113.251 9.37023 112.755 9.49423 112.187 9.49423C111.603 9.49423 111.075 9.35023 110.603 9.06223C110.131 8.77423 109.759 8.37023 109.487 7.85023C109.215 7.33023 109.079 6.73823 109.079 6.07423ZM114.647 6.08623C114.647 5.59023 114.547 5.15823 114.347 4.79023C114.147 4.42223 113.875 4.14223 113.531 3.95023C113.195 3.75023 112.823 3.65023 112.415 3.65023C112.007 3.65023 111.635 3.74623 111.299 3.93823C110.963 4.13023 110.695 4.41023 110.495 4.77823C110.295 5.14623 110.195 5.57823 110.195 6.07423C110.195 6.57823 110.295 7.01823 110.495 7.39423C110.695 7.76223 110.963 8.04623 111.299 8.24623C111.635 8.43823 112.007 8.53423 112.415 8.53423C112.823 8.53423 113.195 8.43823 113.531 8.24623C113.875 8.04623 114.147 7.76223 114.347 7.39423C114.547 7.01823 114.647 6.58223 114.647 6.08623ZM120.308 2.70223C120.876 2.70223 121.372 2.82623 121.796 3.07423C122.228 3.32223 122.548 3.63423 122.756 4.01023V2.81023H123.86V9.53023C123.86 10.1302 123.732 10.6622 123.476 11.1262C123.22 11.5982 122.852 11.9662 122.372 12.2302C121.9 12.4942 121.348 12.6262 120.716 12.6262C119.852 12.6262 119.132 12.4222 118.556 12.0142C117.98 11.6062 117.64 11.0502 117.536 10.3462H118.616C118.736 10.7462 118.984 11.0662 119.36 11.3062C119.736 11.5542 120.188 11.6782 120.716 11.6782C121.316 11.6782 121.804 11.4902 122.18 11.1142C122.564 10.7382 122.756 10.2102 122.756 9.53023V8.15023C122.54 8.53423 122.22 8.85423 121.796 9.11023C121.372 9.36623 120.876 9.49423 120.308 9.49423C119.724 9.49423 119.192 9.35023 118.712 9.06223C118.24 8.77423 117.868 8.37023 117.596 7.85023C117.324 7.33023 117.188 6.73823 117.188 6.07423C117.188 5.40223 117.324 4.81423 117.596 4.31023C117.868 3.79823 118.24 3.40223 118.712 3.12223C119.192 2.84223 119.724 2.70223 120.308 2.70223ZM122.756 6.08623C122.756 5.59023 122.656 5.15823 122.456 4.79023C122.256 4.42223 121.984 4.14223 121.64 3.95023C121.304 3.75023 120.932 3.65023 120.524 3.65023C120.116 3.65023 119.744 3.74623 119.408 3.93823C119.072 4.13023 118.804 4.41023 118.604 4.77823C118.404 5.14623 118.304 5.57823 118.304 6.07423C118.304 6.57823 118.404 7.01823 118.604 7.39423C118.804 7.76223 119.072 8.04623 119.408 8.24623C119.744 8.43823 120.116 8.53423 120.524 8.53423C120.932 8.53423 121.304 8.43823 121.64 8.24623C121.984 8.04623 122.256 7.76223 122.456 7.39423C122.656 7.01823 122.756 6.58223 122.756 6.08623ZM126.797 3.87823C126.989 3.50223 127.261 3.21023 127.613 3.00223C127.973 2.79423 128.409 2.69023 128.921 2.69023V3.81823H128.633C127.409 3.81823 126.797 4.48223 126.797 5.81023V9.38623H125.705V2.81023H126.797V3.87823ZM136.182 5.84623C136.182 6.05423 136.17 6.27423 136.146 6.50623H130.89C130.93 7.15423 131.15 7.66223 131.55 8.03023C131.958 8.39023 132.45 8.57023 133.026 8.57023C133.498 8.57023 133.89 8.46223 134.202 8.24623C134.522 8.02223 134.746 7.72623 134.874 7.35823H136.05C135.874 7.99023 135.522 8.50623 134.994 8.90623C134.466 9.29823 133.81 9.49423 133.026 9.49423C132.402 9.49423 131.842 9.35423 131.346 9.07423C130.858 8.79423 130.474 8.39823 130.194 7.88623C129.914 7.36623 129.774 6.76623 129.774 6.08623C129.774 5.40623 129.91 4.81023 130.182 4.29823C130.454 3.78623 130.834 3.39423 131.322 3.12223C131.818 2.84223 132.386 2.70223 133.026 2.70223C133.65 2.70223 134.202 2.83823 134.682 3.11023C135.162 3.38223 135.53 3.75823 135.786 4.23823C136.05 4.71023 136.182 5.24623 136.182 5.84623ZM135.054 5.61823C135.054 5.20223 134.962 4.84623 134.778 4.55023C134.594 4.24623 134.342 4.01823 134.022 3.86623C133.71 3.70623 133.362 3.62623 132.978 3.62623C132.426 3.62623 131.954 3.80223 131.562 4.15423C131.178 4.50623 130.958 4.99423 130.902 5.61823H135.054ZM143.623 5.84623C143.623 6.05423 143.611 6.27423 143.587 6.50623H138.331C138.371 7.15423 138.591 7.66223 138.991 8.03023C139.399 8.39023 139.891 8.57023 140.467 8.57023C140.939 8.57023 141.331 8.46223 141.643 8.24623C141.963 8.02223 142.187 7.72623 142.315 7.35823H143.491C143.315 7.99023 142.963 8.50623 142.435 8.90623C141.907 9.29823 141.251 9.49423 140.467 9.49423C139.843 9.49423 139.283 9.35423 138.787 9.07423C138.299 8.79423 137.915 8.39823 137.635 7.88623C137.355 7.36623 137.215 6.76623 137.215 6.08623C137.215 5.40623 137.351 4.81023 137.623 4.29823C137.895 3.78623 138.275 3.39423 138.763 3.12223C139.259 2.84223 139.827 2.70223 140.467 2.70223C141.091 2.70223 141.643 2.83823 142.123 3.11023C142.603 3.38223 142.971 3.75823 143.227 4.23823C143.491 4.71023 143.623 5.24623 143.623 5.84623ZM142.495 5.61823C142.495 5.20223 142.403 4.84623 142.219 4.55023C142.035 4.24623 141.783 4.01823 141.463 3.86623C141.151 3.70623 140.803 3.62623 140.419 3.62623C139.867 3.62623 139.395 3.80223 139.003 4.15423C138.619 4.50623 138.399 4.99423 138.343 5.61823H142.495ZM149.596 3.71023V7.58623C149.596 7.90623 149.664 8.13423 149.8 8.27023C149.936 8.39823 150.172 8.46223 150.508 8.46223H151.312V9.38623H150.328C149.72 9.38623 149.264 9.24623 148.96 8.96623C148.656 8.68623 148.504 8.22623 148.504 7.58623V3.71023H147.652V2.81023H148.504V1.15423H149.596V2.81023H151.312V3.71023H149.596ZM155.503 9.49423C154.887 9.49423 154.327 9.35423 153.823 9.07423C153.327 8.79423 152.935 8.39823 152.647 7.88623C152.367 7.36623 152.227 6.76623 152.227 6.08623C152.227 5.41423 152.371 4.82223 152.659 4.31023C152.955 3.79023 153.355 3.39423 153.859 3.12223C154.363 2.84223 154.927 2.70223 155.551 2.70223C156.175 2.70223 156.739 2.84223 157.243 3.12223C157.747 3.39423 158.143 3.78623 158.431 4.29823C158.727 4.81023 158.875 5.40623 158.875 6.08623C158.875 6.76623 158.723 7.36623 158.419 7.88623C158.123 8.39823 157.719 8.79423 157.207 9.07423C156.695 9.35423 156.127 9.49423 155.503 9.49423ZM155.503 8.53423C155.895 8.53423 156.263 8.44223 156.607 8.25823C156.951 8.07423 157.227 7.79823 157.435 7.43023C157.651 7.06223 157.759 6.61423 157.759 6.08623C157.759 5.55823 157.655 5.11023 157.447 4.74223C157.239 4.37423 156.967 4.10223 156.631 3.92623C156.295 3.74223 155.931 3.65023 155.539 3.65023C155.139 3.65023 154.771 3.74223 154.435 3.92623C154.107 4.10223 153.843 4.37423 153.643 4.74223C153.443 5.11023 153.343 5.55823 153.343 6.08623C153.343 6.62223 153.439 7.07423 153.631 7.44223C153.831 7.81023 154.095 8.08623 154.423 8.27023C154.751 8.44623 155.111 8.53423 155.503 8.53423ZM166.378 9.49423C165.762 9.49423 165.202 9.35423 164.698 9.07423C164.202 8.79423 163.81 8.39823 163.522 7.88623C163.242 7.36623 163.102 6.76623 163.102 6.08623C163.102 5.41423 163.246 4.82223 163.534 4.31023C163.83 3.79023 164.23 3.39423 164.734 3.12223C165.238 2.84223 165.802 2.70223 166.426 2.70223C167.05 2.70223 167.614 2.84223 168.118 3.12223C168.622 3.39423 169.018 3.78623 169.306 4.29823C169.602 4.81023 169.75 5.40623 169.75 6.08623C169.75 6.76623 169.598 7.36623 169.294 7.88623C168.998 8.39823 168.594 8.79423 168.082 9.07423C167.57 9.35423 167.002 9.49423 166.378 9.49423ZM166.378 8.53423C166.77 8.53423 167.138 8.44223 167.482 8.25823C167.826 8.07423 168.102 7.79823 168.31 7.43023C168.526 7.06223 168.634 6.61423 168.634 6.08623C168.634 5.55823 168.53 5.11023 168.322 4.74223C168.114 4.37423 167.842 4.10223 167.506 3.92623C167.17 3.74223 166.806 3.65023 166.414 3.65023C166.014 3.65023 165.646 3.74223 165.31 3.92623C164.982 4.10223 164.718 4.37423 164.518 4.74223C164.318 5.11023 164.218 5.55823 164.218 6.08623C164.218 6.62223 164.314 7.07423 164.506 7.44223C164.706 7.81023 164.97 8.08623 165.298 8.27023C165.626 8.44623 165.986 8.53423 166.378 8.53423ZM177.018 2.81023V9.38623H175.926V8.41423C175.718 8.75023 175.426 9.01423 175.05 9.20623C174.682 9.39023 174.274 9.48223 173.826 9.48223C173.314 9.48223 172.854 9.37823 172.446 9.17023C172.038 8.95423 171.714 8.63423 171.474 8.21023C171.242 7.78623 171.126 7.27023 171.126 6.66223V2.81023H172.206V6.51823C172.206 7.16623 172.37 7.66623 172.698 8.01823C173.026 8.36223 173.474 8.53423 174.042 8.53423C174.626 8.53423 175.086 8.35423 175.422 7.99423C175.758 7.63423 175.926 7.11023 175.926 6.42223V2.81023H177.018ZM179.954 3.87823C180.146 3.50223 180.418 3.21023 180.77 3.00223C181.13 2.79423 181.566 2.69023 182.078 2.69023V3.81823H181.79C180.566 3.81823 179.954 4.48223 179.954 5.81023V9.38623H178.862V2.81023H179.954V3.87823ZM266.204 6.07423C266.204 5.40223 266.34 4.81423 266.612 4.31023C266.884 3.79823 267.256 3.40223 267.728 3.12223C268.208 2.84223 268.74 2.70223 269.324 2.70223C269.9 2.70223 270.4 2.82623 270.824 3.07423C271.248 3.32223 271.564 3.63423 271.772 4.01023V2.81023H272.876V9.38623H271.772V8.16223C271.556 8.54623 271.232 8.86623 270.8 9.12223C270.376 9.37023 269.88 9.49423 269.312 9.49423C268.728 9.49423 268.2 9.35023 267.728 9.06223C267.256 8.77423 266.884 8.37023 266.612 7.85023C266.34 7.33023 266.204 6.73823 266.204 6.07423ZM271.772 6.08623C271.772 5.59023 271.672 5.15823 271.472 4.79023C271.272 4.42223 271 4.14223 270.656 3.95023C270.32 3.75023 269.948 3.65023 269.54 3.65023C269.132 3.65023 268.76 3.74623 268.424 3.93823C268.088 4.13023 267.82 4.41023 267.62 4.77823C267.42 5.14623 267.32 5.57823 267.32 6.07423C267.32 6.57823 267.42 7.01823 267.62 7.39423C267.82 7.76223 268.088 8.04623 268.424 8.24623C268.76 8.43823 269.132 8.53423 269.54 8.53423C269.948 8.53423 270.32 8.43823 270.656 8.24623C271 8.04623 271.272 7.76223 271.472 7.39423C271.672 7.01823 271.772 6.58223 271.772 6.08623ZM277.925 2.69023C278.725 2.69023 279.373 2.93423 279.869 3.42223C280.365 3.90223 280.613 4.59823 280.613 5.51023V9.38623H279.533V5.66623C279.533 5.01023 279.369 4.51023 279.041 4.16623C278.713 3.81423 278.265 3.63823 277.697 3.63823C277.121 3.63823 276.661 3.81823 276.317 4.17823C275.981 4.53823 275.813 5.06223 275.813 5.75023V9.38623H274.721V2.81023H275.813V3.74623C276.029 3.41023 276.321 3.15023 276.689 2.96623C277.065 2.78223 277.477 2.69023 277.925 2.69023ZM281.989 6.07423C281.989 5.40223 282.125 4.81423 282.397 4.31023C282.669 3.79823 283.041 3.40223 283.513 3.12223C283.993 2.84223 284.529 2.70223 285.121 2.70223C285.633 2.70223 286.109 2.82223 286.549 3.06223C286.989 3.29423 287.325 3.60223 287.557 3.98623V0.50623H288.661V9.38623H287.557V8.15023C287.341 8.54223 287.021 8.86623 286.597 9.12223C286.173 9.37023 285.677 9.49423 285.109 9.49423C284.525 9.49423 283.993 9.35023 283.513 9.06223C283.041 8.77423 282.669 8.37023 282.397 7.85023C282.125 7.33023 281.989 6.73823 281.989 6.07423ZM287.557 6.08623C287.557 5.59023 287.457 5.15823 287.257 4.79023C287.057 4.42223 286.785 4.14223 286.441 3.95023C286.105 3.75023 285.733 3.65023 285.325 3.65023C284.917 3.65023 284.545 3.74623 284.209 3.93823C283.873 4.13023 283.605 4.41023 283.405 4.77823C283.205 5.14623 283.105 5.57823 283.105 6.07423C283.105 6.57823 283.205 7.01823 283.405 7.39423C283.605 7.76223 283.873 8.04623 284.209 8.24623C284.545 8.43823 284.917 8.53423 285.325 8.53423C285.733 8.53423 286.105 8.43823 286.441 8.24623C286.785 8.04623 287.057 7.76223 287.257 7.39423C287.457 7.01823 287.557 6.58223 287.557 6.08623Z" fill="black"/>
<path d="M191.685 1.02223V1.91023H189.405V9.38623H188.313V1.91023H186.021V1.02223H191.685ZM199.029 5.84623C199.029 6.05423 199.017 6.27423 198.993 6.50623H193.737C193.777 7.15423 193.997 7.66223 194.397 8.03023C194.805 8.39023 195.297 8.57023 195.873 8.57023C196.345 8.57023 196.737 8.46223 197.049 8.24623C197.369 8.02223 197.593 7.72623 197.721 7.35823H198.897C198.721 7.99023 198.369 8.50623 197.841 8.90623C197.313 9.29823 196.657 9.49423 195.873 9.49423C195.249 9.49423 194.689 9.35423 194.193 9.07423C193.705 8.79423 193.321 8.39823 193.041 7.88623C192.761 7.36623 192.621 6.76623 192.621 6.08623C192.621 5.40623 192.757 4.81023 193.029 4.29823C193.301 3.78623 193.681 3.39423 194.169 3.12223C194.665 2.84223 195.233 2.70223 195.873 2.70223C196.497 2.70223 197.049 2.83823 197.529 3.11023C198.009 3.38223 198.377 3.75823 198.633 4.23823C198.897 4.71023 199.029 5.24623 199.029 5.84623ZM197.901 5.61823C197.901 5.20223 197.809 4.84623 197.625 4.55023C197.441 4.24623 197.189 4.01823 196.869 3.86623C196.557 3.70623 196.209 3.62623 195.825 3.62623C195.273 3.62623 194.801 3.80223 194.409 4.15423C194.025 4.50623 193.805 4.99423 193.749 5.61823H197.901ZM201.563 3.87823C201.755 3.50223 202.027 3.21023 202.379 3.00223C202.739 2.79423 203.175 2.69023 203.687 2.69023V3.81823H203.399C202.175 3.81823 201.563 4.48223 201.563 5.81023V9.38623H200.471V2.81023H201.563V3.87823ZM212.855 2.69023C213.367 2.69023 213.823 2.79823 214.223 3.01423C214.623 3.22223 214.939 3.53823 215.171 3.96223C215.403 4.38623 215.519 4.90223 215.519 5.51023V9.38623H214.439V5.66623C214.439 5.01023 214.275 4.51023 213.947 4.16623C213.627 3.81423 213.191 3.63823 212.639 3.63823C212.071 3.63823 211.619 3.82223 211.283 4.19023C210.947 4.55023 210.779 5.07423 210.779 5.76223V9.38623H209.699V5.66623C209.699 5.01023 209.535 4.51023 209.207 4.16623C208.887 3.81423 208.451 3.63823 207.899 3.63823C207.331 3.63823 206.879 3.82223 206.543 4.19023C206.207 4.55023 206.039 5.07423 206.039 5.76223V9.38623H204.947V2.81023H206.039V3.75823C206.255 3.41423 206.543 3.15023 206.903 2.96623C207.271 2.78223 207.675 2.69023 208.115 2.69023C208.667 2.69023 209.155 2.81423 209.579 3.06223C210.003 3.31023 210.319 3.67423 210.527 4.15423C210.711 3.69023 211.015 3.33023 211.439 3.07423C211.863 2.81823 212.335 2.69023 212.855 2.69023ZM219.639 9.49423C219.135 9.49423 218.683 9.41023 218.283 9.24223C217.883 9.06623 217.567 8.82623 217.335 8.52223C217.103 8.21023 216.975 7.85423 216.951 7.45423H218.079C218.111 7.78223 218.263 8.05023 218.535 8.25823C218.815 8.46623 219.179 8.57023 219.627 8.57023C220.043 8.57023 220.371 8.47823 220.611 8.29423C220.851 8.11023 220.971 7.87823 220.971 7.59823C220.971 7.31023 220.843 7.09823 220.587 6.96223C220.331 6.81823 219.935 6.67823 219.399 6.54223C218.911 6.41423 218.511 6.28623 218.199 6.15823C217.895 6.02223 217.631 5.82623 217.407 5.57023C217.191 5.30623 217.083 4.96223 217.083 4.53823C217.083 4.20223 217.183 3.89423 217.383 3.61423C217.583 3.33423 217.867 3.11423 218.235 2.95423C218.603 2.78623 219.023 2.70223 219.495 2.70223C220.223 2.70223 220.811 2.88623 221.259 3.25423C221.707 3.62223 221.947 4.12623 221.979 4.76623H220.887C220.863 4.42223 220.723 4.14623 220.467 3.93823C220.219 3.73023 219.883 3.62623 219.459 3.62623C219.067 3.62623 218.755 3.71023 218.523 3.87823C218.291 4.04623 218.175 4.26623 218.175 4.53823C218.175 4.75423 218.243 4.93423 218.379 5.07823C218.523 5.21423 218.699 5.32623 218.907 5.41423C219.123 5.49423 219.419 5.58623 219.795 5.69023C220.267 5.81823 220.651 5.94623 220.947 6.07423C221.243 6.19423 221.495 6.37823 221.703 6.62623C221.919 6.87423 222.031 7.19823 222.039 7.59823C222.039 7.95823 221.939 8.28223 221.739 8.57023C221.539 8.85823 221.255 9.08623 220.887 9.25423C220.527 9.41423 220.111 9.49423 219.639 9.49423ZM229.647 9.49423C229.031 9.49423 228.471 9.35423 227.967 9.07423C227.471 8.79423 227.079 8.39823 226.791 7.88623C226.511 7.36623 226.371 6.76623 226.371 6.08623C226.371 5.41423 226.515 4.82223 226.803 4.31023C227.099 3.79023 227.499 3.39423 228.003 3.12223C228.507 2.84223 229.071 2.70223 229.695 2.70223C230.319 2.70223 230.883 2.84223 231.387 3.12223C231.891 3.39423 232.287 3.78623 232.575 4.29823C232.871 4.81023 233.019 5.40623 233.019 6.08623C233.019 6.76623 232.867 7.36623 232.563 7.88623C232.267 8.39823 231.863 8.79423 231.351 9.07423C230.839 9.35423 230.271 9.49423 229.647 9.49423ZM229.647 8.53423C230.039 8.53423 230.407 8.44223 230.751 8.25823C231.095 8.07423 231.371 7.79823 231.579 7.43023C231.795 7.06223 231.903 6.61423 231.903 6.08623C231.903 5.55823 231.799 5.11023 231.591 4.74223C231.383 4.37423 231.111 4.10223 230.775 3.92623C230.439 3.74223 230.075 3.65023 229.683 3.65023C229.283 3.65023 228.915 3.74223 228.579 3.92623C228.251 4.10223 227.987 4.37423 227.787 4.74223C227.587 5.11023 227.487 5.55823 227.487 6.08623C227.487 6.62223 227.583 7.07423 227.775 7.44223C227.975 7.81023 228.239 8.08623 228.567 8.27023C228.895 8.44623 229.255 8.53423 229.647 8.53423ZM237.131 3.71023H235.751V9.38623H234.659V3.71023H233.807V2.81023H234.659V2.34223C234.659 1.60623 234.847 1.07023 235.223 0.73423C235.607 0.39023 236.219 0.21823 237.059 0.21823V1.13023C236.579 1.13023 236.239 1.22623 236.039 1.41823C235.847 1.60223 235.751 1.91023 235.751 2.34223V2.81023H237.131V3.71023ZM242.672 1.02223V6.31423C242.672 7.05823 242.852 7.61023 243.212 7.97023C243.58 8.33023 244.088 8.51023 244.736 8.51023C245.376 8.51023 245.876 8.33023 246.236 7.97023C246.604 7.61023 246.788 7.05823 246.788 6.31423V1.02223H247.88V6.30223C247.88 6.99823 247.74 7.58623 247.46 8.06623C247.18 8.53823 246.8 8.89023 246.32 9.12223C245.848 9.35423 245.316 9.47023 244.724 9.47023C244.132 9.47023 243.596 9.35423 243.116 9.12223C242.644 8.89023 242.268 8.53823 241.988 8.06623C241.716 7.58623 241.58 6.99823 241.58 6.30223V1.02223H242.672ZM252.029 9.49423C251.525 9.49423 251.073 9.41023 250.673 9.24223C250.273 9.06623 249.957 8.82623 249.725 8.52223C249.493 8.21023 249.365 7.85423 249.341 7.45423H250.469C250.501 7.78223 250.653 8.05023 250.925 8.25823C251.205 8.46623 251.569 8.57023 252.017 8.57023C252.433 8.57023 252.761 8.47823 253.001 8.29423C253.241 8.11023 253.361 7.87823 253.361 7.59823C253.361 7.31023 253.233 7.09823 252.977 6.96223C252.721 6.81823 252.325 6.67823 251.789 6.54223C251.301 6.41423 250.901 6.28623 250.589 6.15823C250.285 6.02223 250.021 5.82623 249.797 5.57023C249.581 5.30623 249.473 4.96223 249.473 4.53823C249.473 4.20223 249.573 3.89423 249.773 3.61423C249.973 3.33423 250.257 3.11423 250.625 2.95423C250.993 2.78623 251.413 2.70223 251.885 2.70223C252.613 2.70223 253.201 2.88623 253.649 3.25423C254.097 3.62223 254.337 4.12623 254.369 4.76623H253.277C253.253 4.42223 253.113 4.14623 252.857 3.93823C252.609 3.73023 252.273 3.62623 251.849 3.62623C251.457 3.62623 251.145 3.71023 250.913 3.87823C250.681 4.04623 250.565 4.26623 250.565 4.53823C250.565 4.75423 250.633 4.93423 250.769 5.07823C250.913 5.21423 251.089 5.32623 251.297 5.41423C251.513 5.49423 251.809 5.58623 252.185 5.69023C252.657 5.81823 253.041 5.94623 253.337 6.07423C253.633 6.19423 253.885 6.37823 254.093 6.62623C254.309 6.87423 254.421 7.19823 254.429 7.59823C254.429 7.95823 254.329 8.28223 254.129 8.57023C253.929 8.85823 253.645 9.08623 253.277 9.25423C252.917 9.41423 252.501 9.49423 252.029 9.49423ZM261.971 5.84623C261.971 6.05423 261.959 6.27423 261.935 6.50623H256.679C256.719 7.15423 256.939 7.66223 257.339 8.03023C257.747 8.39023 258.239 8.57023 258.815 8.57023C259.287 8.57023 259.679 8.46223 259.991 8.24623C260.311 8.02223 260.535 7.72623 260.663 7.35823H261.839C261.663 7.99023 261.311 8.50623 260.783 8.90623C260.255 9.29823 259.599 9.49423 258.815 9.49423C258.191 9.49423 257.631 9.35423 257.135 9.07423C256.647 8.79423 256.263 8.39823 255.983 7.88623C255.703 7.36623 255.563 6.76623 255.563 6.08623C255.563 5.40623 255.699 4.81023 255.971 4.29823C256.243 3.78623 256.623 3.39423 257.111 3.12223C257.607 2.84223 258.175 2.70223 258.815 2.70223C259.439 2.70223 259.991 2.83823 260.471 3.11023C260.951 3.38223 261.319 3.75823 261.575 4.23823C261.839 4.71023 261.971 5.24623 261.971 5.84623ZM260.843 5.61823C260.843 5.20223 260.751 4.84623 260.567 4.55023C260.383 4.24623 260.131 4.01823 259.811 3.86623C259.499 3.70623 259.151 3.62623 258.767 3.62623C258.215 3.62623 257.743 3.80223 257.351 4.15423C256.967 4.50623 256.747 4.99423 256.691 5.61823H260.843ZM6.516 19.4702C6.516 20.1662 6.276 20.7462 5.796 21.2102C5.324 21.6662 4.6 21.8942 3.624 21.8942H2.016V25.3862H0.924V17.0222H3.624C4.568 17.0222 5.284 17.2502 5.772 17.7062C6.268 18.1622 6.516 18.7502 6.516 19.4702ZM3.624 20.9942C4.232 20.9942 4.68 20.8622 4.968 20.5982C5.256 20.3342 5.4 19.9582 5.4 19.4702C5.4 18.4382 4.808 17.9222 3.624 17.9222H2.016V20.9942H3.624ZM8.96522 19.8782C9.15722 19.5022 9.42922 19.2102 9.78122 19.0022C10.1412 18.7942 10.5772 18.6902 11.0892 18.6902V19.8182H10.8012C9.57722 19.8182 8.96522 20.4822 8.96522 21.8102V25.3862H7.87322V18.8102H8.96522V19.8782ZM12.9138 17.7422C12.7058 17.7422 12.5298 17.6702 12.3858 17.5262C12.2418 17.3822 12.1698 17.2062 12.1698 16.9982C12.1698 16.7902 12.2418 16.6142 12.3858 16.4702C12.5298 16.3262 12.7058 16.2542 12.9138 16.2542C13.1138 16.2542 13.2818 16.3262 13.4178 16.4702C13.5618 16.6142 13.6338 16.7902 13.6338 16.9982C13.6338 17.2062 13.5618 17.3822 13.4178 17.5262C13.2818 17.6702 13.1138 17.7422 12.9138 17.7422ZM13.4418 18.8102V25.3862H12.3498V18.8102H13.4418ZM17.7509 24.3782L19.7909 18.8102H20.9549L18.3749 25.3862H17.1029L14.5229 18.8102H15.6989L17.7509 24.3782ZM21.6215 22.0742C21.6215 21.4022 21.7575 20.8142 22.0295 20.3102C22.3015 19.7982 22.6735 19.4022 23.1455 19.1222C23.6255 18.8422 24.1575 18.7022 24.7415 18.7022C25.3175 18.7022 25.8175 18.8262 26.2415 19.0742C26.6655 19.3222 26.9815 19.6342 27.1895 20.0102V18.8102H28.2935V25.3862H27.1895V24.1622C26.9735 24.5462 26.6495 24.8662 26.2175 25.1222C25.7935 25.3702 25.2975 25.4942 24.7295 25.4942C24.1455 25.4942 23.6175 25.3502 23.1455 25.0622C22.6735 24.7742 22.3015 24.3702 22.0295 23.8502C21.7575 23.3302 21.6215 22.7382 21.6215 22.0742ZM27.1895 22.0862C27.1895 21.5902 27.0895 21.1582 26.8895 20.7902C26.6895 20.4222 26.4175 20.1422 26.0735 19.9502C25.7375 19.7502 25.3655 19.6502 24.9575 19.6502C24.5495 19.6502 24.1775 19.7462 23.8415 19.9382C23.5055 20.1302 23.2375 20.4102 23.0375 20.7782C22.8375 21.1462 22.7375 21.5782 22.7375 22.0742C22.7375 22.5782 22.8375 23.0182 23.0375 23.3942C23.2375 23.7622 23.5055 24.0462 23.8415 24.2462C24.1775 24.4382 24.5495 24.5342 24.9575 24.5342C25.3655 24.5342 25.7375 24.4382 26.0735 24.2462C26.4175 24.0462 26.6895 23.7622 26.8895 23.3942C27.0895 23.0182 27.1895 22.5822 27.1895 22.0862ZM29.7308 22.0862C29.7308 21.4062 29.8668 20.8142 30.1388 20.3102C30.4108 19.7982 30.7868 19.4022 31.2668 19.1222C31.7548 18.8422 32.3108 18.7022 32.9348 18.7022C33.7428 18.7022 34.4068 18.8982 34.9268 19.2902C35.4548 19.6822 35.8028 20.2262 35.9708 20.9222H34.7948C34.6828 20.5222 34.4628 20.2062 34.1348 19.9742C33.8148 19.7422 33.4148 19.6262 32.9348 19.6262C32.3108 19.6262 31.8068 19.8422 31.4228 20.2742C31.0388 20.6982 30.8468 21.3022 30.8468 22.0862C30.8468 22.8782 31.0388 23.4902 31.4228 23.9222C31.8068 24.3542 32.3108 24.5702 32.9348 24.5702C33.4148 24.5702 33.8148 24.4582 34.1348 24.2342C34.4548 24.0102 34.6748 23.6902 34.7948 23.2742H35.9708C35.7948 23.9462 35.4428 24.4862 34.9148 24.8942C34.3868 25.2942 33.7268 25.4942 32.9348 25.4942C32.3108 25.4942 31.7548 25.3542 31.2668 25.0742C30.7868 24.7942 30.4108 24.3982 30.1388 23.8862C29.8668 23.3742 29.7308 22.7742 29.7308 22.0862ZM43.0919 18.8102L39.1319 28.4822H38.0039L39.2999 25.3142L36.6479 18.8102H37.8599L39.9239 24.1382L41.9639 18.8102H43.0919ZM52.9808 19.4702C52.9808 20.1662 52.7408 20.7462 52.2608 21.2102C51.7888 21.6662 51.0648 21.8942 50.0888 21.8942H48.4808V25.3862H47.3888V17.0222H50.0888C51.0328 17.0222 51.7488 17.2502 52.2368 17.7062C52.7328 18.1622 52.9808 18.7502 52.9808 19.4702ZM50.0888 20.9942C50.6968 20.9942 51.1448 20.8622 51.4328 20.5982C51.7208 20.3342 51.8648 19.9582 51.8648 19.4702C51.8648 18.4382 51.2728 17.9222 50.0888 17.9222H48.4808V20.9942H50.0888ZM57.2061 25.4942C56.5901 25.4942 56.0301 25.3542 55.5261 25.0742C55.0301 24.7942 54.6381 24.3982 54.3501 23.8862C54.0701 23.3662 53.9301 22.7662 53.9301 22.0862C53.9301 21.4142 54.0741 20.8222 54.3621 20.3102C54.6581 19.7902 55.0581 19.3942 55.5621 19.1222C56.0661 18.8422 56.6301 18.7022 57.2541 18.7022C57.8781 18.7022 58.4421 18.8422 58.9461 19.1222C59.4501 19.3942 59.8461 19.7862 60.1341 20.2982C60.4301 20.8102 60.5781 21.4062 60.5781 22.0862C60.5781 22.7662 60.4261 23.3662 60.1221 23.8862C59.8261 24.3982 59.4221 24.7942 58.9101 25.0742C58.3981 25.3542 57.8301 25.4942 57.2061 25.4942ZM57.2061 24.5342C57.5981 24.5342 57.9661 24.4422 58.3101 24.2582C58.6541 24.0742 58.9301 23.7982 59.1381 23.4302C59.3541 23.0622 59.4621 22.6142 59.4621 22.0862C59.4621 21.5582 59.3581 21.1102 59.1501 20.7422C58.9421 20.3742 58.6701 20.1022 58.3341 19.9262C57.9981 19.7422 57.6341 19.6502 57.2421 19.6502C56.8421 19.6502 56.4741 19.7422 56.1381 19.9262C55.8101 20.1022 55.5461 20.3742 55.3461 20.7422C55.1461 21.1102 55.0461 21.5582 55.0461 22.0862C55.0461 22.6222 55.1421 23.0742 55.3341 23.4422C55.5341 23.8102 55.7981 24.0862 56.1261 24.2702C56.4541 24.4462 56.8141 24.5342 57.2061 24.5342ZM63.1058 16.5062V25.3862H62.0138V16.5062H63.1058ZM65.531 17.7422C65.323 17.7422 65.147 17.6702 65.003 17.5262C64.859 17.3822 64.787 17.2062 64.787 16.9982C64.787 16.7902 64.859 16.6142 65.003 16.4702C65.147 16.3262 65.323 16.2542 65.531 16.2542C65.731 16.2542 65.899 16.3262 66.035 16.4702C66.179 16.6142 66.251 16.7902 66.251 16.9982C66.251 17.2062 66.179 17.3822 66.035 17.5262C65.899 17.6702 65.731 17.7422 65.531 17.7422ZM66.059 18.8102V25.3862H64.967V18.8102H66.059ZM67.5121 22.0862C67.5121 21.4062 67.6481 20.8142 67.9201 20.3102C68.1921 19.7982 68.5681 19.4022 69.0481 19.1222C69.5361 18.8422 70.0921 18.7022 70.7161 18.7022C71.5241 18.7022 72.1881 18.8982 72.7081 19.2902C73.2361 19.6822 73.5841 20.2262 73.7521 20.9222H72.5761C72.4641 20.5222 72.2441 20.2062 71.9161 19.9742C71.5961 19.7422 71.1961 19.6262 70.7161 19.6262C70.0921 19.6262 69.5881 19.8422 69.2041 20.2742C68.8201 20.6982 68.6281 21.3022 68.6281 22.0862C68.6281 22.8782 68.8201 23.4902 69.2041 23.9222C69.5881 24.3542 70.0921 24.5702 70.7161 24.5702C71.1961 24.5702 71.5961 24.4582 71.9161 24.2342C72.2361 24.0102 72.4561 23.6902 72.5761 23.2742H73.7521C73.5761 23.9462 73.2241 24.4862 72.6961 24.8942C72.1681 25.2942 71.5081 25.4942 70.7161 25.4942C70.0921 25.4942 69.5361 25.3542 69.0481 25.0742C68.5681 24.7942 68.1921 24.3982 67.9201 23.8862C67.6481 23.3742 67.5121 22.7742 67.5121 22.0862ZM80.8732 18.8102L76.9132 28.4822H75.7852L77.0812 25.3142L74.4292 18.8102H75.6412L77.7052 24.1382L79.7452 18.8102H80.8732Z" fill="#9F1B30"/>
<path d="M185.613 10.5862H262.488V11.1862H185.613V10.5862ZM0 26.5862H81.0412V27.1862H0V26.5862Z" fill="#9F1B30"/>
</svg>
