<svg width="25" height="24" viewBox="0 0 25 24" fill="none" xmlns="http://www.w3.org/2000/svg">
<path d="M2.62472 24H22.3753C24.3949 24 25.6539 21.6434 24.6441 19.7666L14.7688 1.40761C13.759 -0.469205 11.241 -0.469205 10.2312 1.40761L0.355892 19.7666C-0.653931 21.6434 0.605069 24 2.62472 24ZM12.5 14.122C11.7787 14.122 11.1885 13.487 11.1885 12.7109V9.88858C11.1885 9.11245 11.7787 8.47744 12.5 8.47744C13.2213 8.47744 13.8115 9.11245 13.8115 9.88858V12.7109C13.8115 13.487 13.2213 14.122 12.5 14.122ZM13.8115 19.7666H11.1885V16.9443H13.8115V19.7666Z" fill="#FF3B30"/>
</svg>
