<svg width="112" height="70" viewBox="0 0 112 70" fill="none" xmlns="http://www.w3.org/2000/svg">
<path d="M0 34.8403V69.9961H27.0368V62.2393H8.53852V56.1752H27.0368V48.4184H8.53852V42.6008H27.0368V34.8403H0Z" fill="#FF6E22"/>
<path d="M46.216 34.8403H32.3804V69.9961H46.216C57.0242 69.9961 64.8703 62.6054 64.8703 52.42V52.3222C64.8703 42.1912 57.0242 34.8403 46.216 34.8403ZM55.9402 52.5143C55.9402 58.2703 52.0317 62.1378 46.216 62.1378H40.9697V42.695H46.216C52.0317 42.695 55.9402 46.6024 55.9402 52.4164V52.5143Z" fill="#FF6E22"/>
<path d="M77.8801 34.8444H69.2908V70.0002H77.8801V34.8444Z" fill="#FF6E22"/>
<path d="M92.8827 69.9961H101.472V42.8436H111.838V34.8403H82.5132V42.8436H92.8827V69.9961Z" fill="#FF6E22"/>
<path d="M34.9046 29.5158H26.9136V9.6779C26.9136 9.35893 26.7141 9.01458 26.3552 8.70648C25.2747 7.79307 23.1537 7.78944 22.0733 8.70648C21.7143 9.01096 21.5149 9.35893 21.5149 9.6779V29.5158H13.3897V9.6779C13.3897 9.35893 13.1903 9.01458 12.8313 8.70648C11.7509 7.78944 9.62986 7.78944 8.54577 8.70648C8.18683 9.01096 7.98741 9.3553 7.98741 9.6779V29.5158H0V9.6779C0 4.34237 4.7968 0 10.6922 0C13.1685 0 15.5506 0.772057 17.4505 2.18568C19.354 0.772057 21.7361 0 24.2124 0C30.1078 0 34.9046 4.34237 34.9046 9.6779V29.5158ZM28.2188 28.2073H33.5957V9.6779C33.5957 5.06006 29.3863 1.30489 24.2124 1.30489C21.8883 1.30489 19.6585 2.06969 17.9363 3.46157L17.4505 3.85666L16.9646 3.46157C15.2461 2.07332 13.0199 1.30851 10.6922 1.30851C5.51831 1.30851 1.30888 5.06368 1.30888 9.6779V28.2073H6.68579V9.6779C6.68579 8.96746 7.04836 8.27152 7.70098 7.71332C9.27091 6.38669 12.1171 6.38669 13.6798 7.71332C14.336 8.27152 14.6986 8.96746 14.6986 9.6779V28.2073H20.206V9.6779C20.206 8.96746 20.5686 8.27152 21.2212 7.71332C22.7875 6.38669 25.6337 6.38669 27.2 7.71332C27.8562 8.27152 28.2188 8.97109 28.2188 9.68152V28.2109V28.2073Z" fill="#FF6E22"/>
<path d="M54.3352 29.7953C50.2055 29.7953 46.2717 28.7006 43.2551 26.7107C41.6344 25.645 40.34 24.3619 39.401 22.9011C38.3278 21.2229 37.7803 19.4142 37.7803 17.5221V16.5615H45.7713V17.5221C45.7713 17.9063 45.9562 18.9212 47.653 20.0412C49.3789 21.1794 51.7537 21.8065 54.3352 21.8065C57.0654 21.8065 59.4656 21.2446 61.0971 20.2261C62.3408 19.4504 62.8955 18.6167 62.8955 17.5221V15.9055C60.3357 17.0328 57.3953 17.6272 54.3352 17.6272C50.2055 17.6272 46.2717 16.5325 43.2551 14.5426C41.6344 13.4733 40.3364 12.1902 39.401 10.7331C38.3278 9.05483 37.7803 7.24611 37.7803 5.3504V0.420837H45.7713V5.34678C45.7713 5.731 45.9562 6.74591 47.653 7.86593C49.3789 9.00408 51.7537 9.63115 54.3352 9.63115C56.9167 9.63115 59.2879 9.00408 61.0174 7.86593C62.7142 6.74591 62.8991 5.731 62.8991 5.34678V0.482457H70.8938V17.5221C70.8938 21.4005 68.9214 24.7678 65.3356 27.0043C62.4495 28.8057 58.5446 29.7953 54.3388 29.7953M39.0964 17.8664C39.158 19.3815 39.6294 20.835 40.5032 22.1943C41.3407 23.4992 42.5118 24.6518 43.9766 25.616C46.7829 27.4682 50.463 28.4867 54.3388 28.4867C58.2147 28.4867 61.9637 27.5661 64.6431 25.8915C67.8301 23.9015 69.5885 20.9293 69.5885 17.5185V1.78734H64.2116V5.34678C64.2116 6.08622 63.8926 7.53971 61.7425 8.95696C59.8064 10.2329 57.1778 10.936 54.3425 10.936C51.5072 10.936 48.8785 10.2329 46.9388 8.95696C44.7888 7.53971 44.4697 6.08622 44.4697 5.34678V1.72935H39.0928V5.3504C39.0928 6.98876 39.5677 8.56187 40.5068 10.0262C41.3443 11.3311 42.5154 12.4838 43.9802 13.4516C46.7865 15.3002 50.4666 16.3187 54.3425 16.3187C57.515 16.3187 60.5424 15.6445 63.0949 14.3722L64.2116 13.814V17.5257C64.2116 19.0807 63.4212 20.3276 61.7969 21.3389C59.9623 22.4843 57.3155 23.115 54.3425 23.115C51.3694 23.115 48.8785 22.4118 46.9388 21.1323C45.0861 19.9108 44.593 18.6639 44.4914 17.8664H39.1H39.0964Z" fill="#FF6E22"/>
</svg>
