<svg width="31" height="30" viewBox="0 0 31 30" fill="none" xmlns="http://www.w3.org/2000/svg">
<path d="M15.5 22.5C15.925 22.5 16.2815 22.356 16.5695 22.068C16.8575 21.78 17.001 21.424 17 21C17 20.575 16.856 20.2185 16.568 19.9305C16.28 19.6425 15.924 19.499 15.5 19.5C15.075 19.5 14.7185 19.644 14.4305 19.932C14.1425 20.22 13.999 20.576 14 21C14 21.425 14.144 21.7815 14.432 22.0695C14.72 22.3575 15.076 22.501 15.5 22.5ZM14 16.5H17V7.5H14V16.5ZM15.5 30C13.425 30 11.475 29.606 9.65 28.818C7.825 28.03 6.2375 26.9615 4.8875 25.6125C3.5375 24.2625 2.469 22.675 1.682 20.85C0.895 19.025 0.501 17.075 0.5 15C0.5 12.925 0.894 10.975 1.682 9.15C2.47 7.325 3.5385 5.7375 4.8875 4.3875C6.2375 3.0375 7.825 1.969 9.65 1.182C11.475 0.395 13.425 0.001 15.5 0C17.575 0 19.525 0.394 21.35 1.182C23.175 1.97 24.7625 3.0385 26.1125 4.3875C27.4625 5.7375 28.5315 7.325 29.3195 9.15C30.1075 10.975 30.501 12.925 30.5 15C30.5 17.075 30.106 19.025 29.318 20.85C28.53 22.675 27.4615 24.2625 26.1125 25.6125C24.7625 26.9625 23.175 28.0315 21.35 28.8195C19.525 29.6075 17.575 30.001 15.5 30Z" fill="#A2A2A2"/>
</svg>
